<svg width="153" height="43" viewBox="0 0 153 43" fill="none" xmlns="http://www.w3.org/2000/svg">
<path d="M23.7148 27.332V19.4844C23.7148 18.4089 23.5052 17.3971 23.0859 16.4492C22.6849 15.4831 22.1289 14.6445 21.418 13.9336C20.707 13.2227 19.8685 12.6667 18.9023 12.2656C17.9544 11.8464 16.9427 11.6367 15.8672 11.6367C14.7917 11.6367 13.7708 11.8464 12.8047 12.2656C11.8568 12.6667 11.0273 13.2227 10.3164 13.9336C9.60547 14.6445 9.04036 15.4831 8.62109 16.4492C8.22005 17.3971 8.01953 18.4089 8.01953 19.4844V27.332H23.7148ZM31.5625 43H23.7148V35.1523H8.01953V43H0.199219V19.4844C0.199219 17.3151 0.609375 15.2826 1.42969 13.3867C2.25 11.4727 3.36198 9.80469 4.76562 8.38281C6.1875 6.96094 7.84635 5.83984 9.74219 5.01953C11.6562 4.19922 13.6979 3.78906 15.8672 3.78906C18.0365 3.78906 20.069 4.19922 21.9648 5.01953C23.8789 5.83984 25.5469 6.96094 26.9688 8.38281C28.3906 9.80469 29.5117 11.4727 30.332 13.3867C31.1523 15.2826 31.5625 17.3151 31.5625 19.4844V43ZM47.843 43H40.3781V13.7148H42.1828L44.6437 16.5586C45.8469 15.4648 47.2049 14.6263 48.718 14.043C50.2492 13.4414 51.8443 13.1406 53.5031 13.1406C55.2896 13.1406 56.9758 13.487 58.5617 14.1797C60.1477 14.8542 61.5331 15.793 62.718 16.9961C63.9029 18.181 64.8326 19.5755 65.507 21.1797C66.1997 22.7656 66.5461 24.4609 66.5461 26.2656V43H59.0812V26.2656C59.0812 25.5 58.9354 24.7799 58.6437 24.1055C58.3521 23.4128 57.951 22.8112 57.4406 22.3008C56.9302 21.7904 56.3378 21.3893 55.6633 21.0977C54.9888 20.806 54.2687 20.6602 53.5031 20.6602C52.7193 20.6602 51.981 20.806 51.2883 21.0977C50.5956 21.3893 49.994 21.7904 49.4836 22.3008C48.9732 22.8112 48.5721 23.4128 48.2805 24.1055C47.9888 24.7799 47.843 25.5 47.843 26.2656V43ZM88.9789 43C87.1742 43 85.4789 42.6628 83.893 41.9883C82.307 41.2956 80.9125 40.3568 79.7094 39.1719C78.5245 37.9688 77.5857 36.5742 76.893 34.9883C76.2185 33.4023 75.8812 31.707 75.8812 29.9023V21.207H72.2445V13.7695H75.8812V2.06641H83.3187V13.7695H94.6391V21.207H83.3187V29.9023C83.3187 30.6862 83.4646 31.4245 83.7562 32.1172C84.0479 32.7917 84.449 33.3841 84.9594 33.8945C85.4698 34.4049 86.0714 34.8151 86.7641 35.125C87.4568 35.4167 88.1951 35.5625 88.9789 35.5625H94.6391V43H88.9789ZM109.115 43H101.65V13.7148H103.455L105.916 17.1875C107.119 16.0938 108.486 15.2552 110.017 14.6719C111.548 14.0703 113.134 13.7695 114.775 13.7695H121.365V21.207H114.775C113.991 21.207 113.253 21.3529 112.56 21.6445C111.867 21.9362 111.266 22.3372 110.755 22.8477C110.245 23.3581 109.844 23.9596 109.552 24.6523C109.261 25.3451 109.115 26.0833 109.115 26.8672V43ZM136.442 5.75781C136.442 6.45052 136.305 7.09766 136.032 7.69922C135.777 8.30078 135.421 8.82943 134.966 9.28516C134.51 9.72266 133.972 10.0781 133.352 10.3516C132.751 10.6068 132.104 10.7344 131.411 10.7344C130.718 10.7344 130.062 10.6068 129.442 10.3516C128.841 10.0781 128.312 9.72266 127.856 9.28516C127.419 8.82943 127.063 8.30078 126.79 7.69922C126.535 7.09766 126.407 6.45052 126.407 5.75781C126.407 5.08333 126.535 4.44531 126.79 3.84375C127.063 3.22396 127.419 2.69531 127.856 2.25781C128.312 1.80208 128.841 1.44661 129.442 1.19141C130.062 0.917969 130.718 0.78125 131.411 0.78125C132.104 0.78125 132.751 0.917969 133.352 1.19141C133.972 1.44661 134.51 1.80208 134.966 2.25781C135.421 2.69531 135.777 3.22396 136.032 3.84375C136.305 4.44531 136.442 5.08333 136.442 5.75781ZM135.157 43H127.637V13.7148H135.157V43ZM152.477 5.75781C152.477 6.45052 152.34 7.09766 152.066 7.69922C151.811 8.30078 151.456 8.82943 151 9.28516C150.544 9.72266 150.007 10.0781 149.387 10.3516C148.785 10.6068 148.138 10.7344 147.445 10.7344C146.753 10.7344 146.096 10.6068 145.477 10.3516C144.875 10.0781 144.346 9.72266 143.891 9.28516C143.453 8.82943 143.098 8.30078 142.824 7.69922C142.569 7.09766 142.441 6.45052 142.441 5.75781C142.441 5.08333 142.569 4.44531 142.824 3.84375C143.098 3.22396 143.453 2.69531 143.891 2.25781C144.346 1.80208 144.875 1.44661 145.477 1.19141C146.096 0.917969 146.753 0.78125 147.445 0.78125C148.138 0.78125 148.785 0.917969 149.387 1.19141C150.007 1.44661 150.544 1.80208 151 2.25781C151.456 2.69531 151.811 3.22396 152.066 3.84375C152.34 4.44531 152.477 5.08333 152.477 5.75781ZM151.191 43H143.672V13.7148H151.191V43Z" fill="white"/>
</svg>
